<svg x="0" y="0" width="300" height="300" viewBox="0 0 350 350" xmlns="http://www.w3.org/2000/svg" xmlns:xlink="http://www.w3.org/1999/xlink" xmlns:fi="http://pattern.flaticon.com/"><rect x="0px" y="0px" width="100%" height="100%" opacity="1" fill="#d3d3d3"/><defs><path d="M482,91.03H30c-16.542,0-30,13.458-30,30v269.94c0,16.542,13.458,30,30,30h452c16.542,0,30-13.458,30-30V121.03    C512,104.488,498.542,91.03,482,91.03z M482.013,308.958h-45.191V203.042h45.184L482.013,308.958z M271,218.896    c14.772,5.926,25.229,20.319,25.229,37.104c0,16.785-10.457,31.179-25.229,37.104V218.896z M30,203.042h45.178v105.916H30V203.042    z M241,293.104c-14.772-5.926-25.229-20.319-25.229-37.104c0-16.785,10.457-31.179,25.229-37.104V293.104z M241,187.624    c-31.539,6.869-55.229,34.91-55.229,68.376s23.69,61.507,55.229,68.376v66.594H30v-52.012h60.178c8.284,0,15-6.716,15-15V188.042    c0-8.284-6.716-15-15-15H30V121.03h211V187.624z M482,390.97H271v-66.594c31.539-6.869,55.229-34.91,55.229-68.376    s-23.69-61.507-55.229-68.376V121.03h211l0.004,52.012h-60.181c-8.284,0-15,6.716-15,15v135.916c0,8.284,6.716,15,15,15h60.193    l0.003,52.011C482.019,390.969,482.013,390.97,482,390.97z" transform="matrix(0.15161216259002686 0 0 0.15161216259002686 42.187286376953125 203.18728637695312)" id="L1_17" fill="#000000"/><path d="M362.12,198.441l-25.742-22.697c-0.516-0.455-1.061-0.852-1.618-1.224V15c0-8.284-6.716-15-15-15H138.498    c-8.284,0-15,6.716-15,15v246.049c0,8.284,6.716,15,15,15h2.993c-12.115,19.16-18.839,41.597-18.839,64.721    c0,30.433,11.296,58.274,29.911,79.561V497c0,8.284,6.716,15,15,15H319.76c8.284,0,15-6.716,15-15v-78.127l49.493-131.633    C395.955,256.116,387.06,220.431,362.12,198.441z M153.498,30L153.498,30H304.76v216.049h-24.133h-1.134v-73.15    c0-31.312-25.474-56.785-56.785-56.785c-31.311,0-56.785,25.474-56.785,56.785v73.15h-12.425V30z M304.761,482H182.564v-36.817    c17.944,10.541,38.826,16.596,61.099,16.596c21.838,0,42.768-5.743,61.098-16.503V482z M356.172,276.682l-35.061,93.25    l-9.603,25.542l-3.697,9.833c-17.166,17.069-39.912,26.472-64.148,26.472c-50.183,0-91.009-40.826-91.009-91.009    c0-28.754,13.81-56.109,36.958-73.229c3.021-2.147,5.247-5.407,6.024-9.292c0.219-1.094,0.313-2.193,0.289-3.278v-82.072    c0-14.77,12.016-26.785,26.785-26.785c14.769,0,26.785,12.016,26.785,26.785v97.354c0,8.284,6.716,15,15,15    c1.857,0,3.627-0.353,5.268-0.97c3.865-1.452,6.977-4.439,8.569-8.233h2.298h39.133c1.428,0,2.804-0.212,4.112-0.585    c6.283-1.789,10.888-7.559,10.888-14.415v-46.735l7.519,6.63C357.934,234.746,363.517,257.146,356.172,276.682z" transform="matrix(0.14166496694087982 0 0 0.14166496694087982 -36.34710693359375 100.7337646484375)" id="L1_18" fill="#000000"/><path d="M496.991,103.077H183.792c-28.656,0-55.492,7.93-78.442,21.701H57.034C25.585,124.778,0,150.363,0,181.811    c0,22.69,13.322,42.324,32.553,51.501c-1.106,7.405-1.685,14.98-1.685,22.687c0,84.323,68.602,152.924,152.924,152.924    S336.716,340.323,336.716,256c0-4.338-0.191-8.63-0.547-12.877c51.917-19.693,106.246-31.515,161.808-35.168    c7.89-0.519,14.024-7.069,14.024-14.977v-74.894C512,109.796,505.28,103.077,496.991,103.077z M30.018,181.81    c0-14.897,12.119-27.016,27.016-27.016h12.221c-12.411,14.03-22.295,30.344-28.921,48.228    C34.058,198.072,30.018,190.406,30.018,181.81z M183.792,378.907c-67.77,0-122.906-55.135-122.906-122.906    s55.136-122.906,122.906-122.906s122.906,55.135,122.906,122.906S251.562,378.907,183.792,378.907z M481.982,179.092    c-51.857,4.645-102.605,16.092-151.378,34.085c-9.475-32.43-29.423-60.434-55.926-80.083h207.304V179.092z" transform="matrix(0.1373540312051773 0 0 0.1373540312051773 194.83731079101562 172.83731079101562)" id="L1_19" fill="#000000"/><g transform="matrix(0.1363143026828766 0 0 0.1363143026828766 102.1131591796875 88.12397766113281)" id="L1_20"><path d="M507.493,166.743l-86.5-84.691c-20.142-19.722-46.76-30.583-74.951-30.583h-7.407c-0.773-0.634-1.621-1.2-2.54-1.684    l-22.649-11.923c-7.33-3.859-16.401-1.045-20.26,6.286c-1.231,2.339-1.777,4.854-1.719,7.322h-70.935    c0.057-2.467-0.488-4.983-1.719-7.322c-3.859-7.331-12.93-10.146-20.26-6.286l-22.649,11.923c-0.919,0.484-1.767,1.05-2.54,1.684    h-7.407c-28.19,0-54.809,10.861-74.951,30.583l-86.5,84.691c-5.769,5.649-6.032,14.851-0.595,20.819l56.56,62.091    c5.263,5.778,14.082,6.546,20.266,1.764l35.119-27.164l3.56,236.84c0.123,8.195,6.802,14.774,14.998,14.774h243.173    c8.196,0,14.875-6.579,14.998-14.774l3.56-236.84l35.119,27.164c6.183,4.783,15.003,4.015,20.266-1.764l56.56-62.091    C513.525,181.593,513.262,172.392,507.493,166.743z M289.559,81.469c-4.394,14.271-17.774,24.682-33.559,24.682    c-15.773,0-29.145-10.408-33.55-24.682H289.559z M438.669,219.22l-47.896-37.048c-4.493-3.476-10.565-4.114-15.684-1.65    c-5.119,2.464-8.406,7.609-8.492,13.29l-3.788,252.056h-213.62l-3.788-252.056c-0.085-5.681-3.373-10.826-8.492-13.29    c-5.118-2.465-11.19-1.826-15.684,1.65L73.329,219.22l-37.497-41.164l76.162-74.569c14.501-14.198,33.665-22.018,53.962-22.018    h25.775c4.932,30.948,31.867,54.682,64.268,54.682c32.416,0,59.36-23.737,64.275-54.682h25.768    c20.296,0,39.461,7.82,53.962,22.019l76.162,74.568L438.669,219.22z" fill="#000000"/><path d="M328.358,168.102h-55.159c-8.284,0-15,6.716-15,15v72.853c0,8.284,6.716,15,15,15h55.159c8.284,0,15-6.716,15-15v-72.853    C343.358,174.818,336.642,168.102,328.358,168.102z M313.358,240.955h-25.159v-42.853h25.159V240.955z" fill="#000000"/></g><path d="M437.02,74.98C388.667,26.629,324.38,0,256,0S123.333,26.629,74.98,74.98C26.629,123.333,0,187.62,0,256    s26.629,132.667,74.98,181.02C123.333,485.371,187.62,512,256,512s132.667-26.629,181.02-74.98    C485.371,388.667,512,324.38,512,256S485.371,123.333,437.02,74.98z M443.534,130.008c18.767,27.843,31.488,60.075,36.304,94.801    l-2.882,2.492l-56.512-32.398l13.548-63.672L443.534,130.008z M338.767,45.695c32.165,12.702,60.735,32.588,83.738,57.66    c-8.874,3.495-15.646,11.244-17.693,20.862l-13.88,65.233c-0.169,0.796-0.302,1.593-0.403,2.389l-40.147,17.927l-74.214-54.033    c-1.65-1.202-3.384-2.223-5.168-3.096v-43.975c0.686-0.417,1.359-0.863,2.018-1.342l53.904-39.271    C334.226,62.727,338.459,54.404,338.767,45.695z M205.881,326.804l-28.484-87.818c-0.572-1.763,0.051-3.681,1.55-4.771    l74.537-54.229c1.504-1.094,3.523-1.093,5.026,0.001l74.544,54.272c1.499,1.091,2.121,3.009,1.549,4.771l-28.483,87.774    c-0.573,1.766-2.206,2.953-4.063,2.953h-92.113v0C208.087,329.757,206.454,328.57,205.881,326.804z M205.981,35.589    C222.077,31.937,238.816,30,256,30c17.18,0,33.915,1.937,50.008,5.586l2.613,8.678l-52.614,38.332l-52.625-38.391L205.981,35.589z     M173.24,45.691c0.325,8.681,4.546,16.974,11.826,22.286l53.913,39.331c0.66,0.481,1.335,0.928,2.022,1.347v43.978    c-1.784,0.872-3.516,1.893-5.166,3.093l-74.254,54.022l-40.109-17.91c-0.102-0.796-0.234-1.593-0.403-2.389l-13.88-65.232    c-2.047-9.618-8.818-17.367-17.693-20.862C112.5,78.282,141.072,58.395,173.24,45.691z M68.466,130.008l9.542,1.223l13.548,63.672    l-56.511,32.398l-2.883-2.492C36.978,190.083,49.699,157.851,68.466,130.008z M64.338,375.618    c-21.56-34.421-34.113-75.028-34.324-118.505c1.623,0.279,3.267,0.425,4.915,0.425c4.93,0,9.885-1.257,14.355-3.819l57.896-33.192    c0.708-0.406,1.391-0.84,2.053-1.296l37.999,16.968c-0.168,3.997,0.339,8.068,1.629,12.045l28.484,87.818    c0.258,0.796,0.552,1.571,0.862,2.337l-26.804,34.195c-0.799-0.094-1.606-0.159-2.422-0.187l-66.694-2.304    C75.705,369.883,69.434,371.925,64.338,375.618z M82.042,400.112l65.095,2.249l17.054,60.132    C132.214,448.219,104.136,426.735,82.042,400.112z M334.877,393.396l-18.198,64.162c-1.532,5.4-1.403,10.978,0.131,16.122    C297.453,479.095,277.061,482,256,482c-21.51,0-42.325-3.023-62.049-8.662c1.437-5.048,1.521-10.499,0.023-15.779l-18.197-64.162    c-0.222-0.783-0.478-1.55-0.759-2.301l25.592-32.649c2.985,0.841,6.113,1.31,9.334,1.31h92.113c2.824,0,5.583-0.345,8.233-0.997    l25.346,32.335C335.354,391.846,335.099,392.613,334.877,393.396z M346.271,463.166l17.246-60.806l65.102-2.249    c0.141,0.354,0.305,0.691,0.469,1.029C406.772,427.71,378.469,449.082,346.271,463.166z M428.369,370.102l-66.696,2.304    c-0.815,0.028-1.622,0.093-2.421,0.187l-25.942-33.095c0.498-1.115,0.962-2.252,1.346-3.435l28.483-87.775    c1.295-3.992,1.801-8.079,1.628-12.091l38.001-16.968c0.662,0.456,1.346,0.891,2.054,1.297l57.896,33.192    c4.47,2.563,9.424,3.819,14.354,3.819c1.648,0,3.292-0.147,4.915-0.425c-0.214,43.764-12.929,84.622-34.751,119.188    C441.984,372.167,435.342,369.864,428.369,370.102z" transform="matrix(0.1171875 0 0 0.1171875 122 307)" id="L1_22" fill="#000000"/><g transform="matrix(0.127088263630867 0 0 0.127088263630867 259.46539306640625 255.4654083251953)" id="L1_29"><path d="m76 240c12.109375 0 23.109375-4.816406 31.207031-12.625l44.148438 22.074219c-.226563 1.820312-.355469 3.667969-.355469 5.550781 0 24.8125 20.1875 45 45 45s45-20.1875 45-45c0-6.9375-1.582031-13.515625-4.398438-19.390625l60.007813-60.007813c5.875 2.816407 12.453125 4.398438 19.390625 4.398438 24.8125 0 45-20.1875 45-45 0-4.6875-.722656-9.207031-2.058594-13.457031l52.132813-39.097657c7.140625 4.769532 15.710937 7.554688 24.925781 7.554688 24.8125 0 45-20.1875 45-45s-20.1875-45-45-45-45 20.1875-45 45c0 4.6875.722656 9.207031 2.058594 13.457031l-52.132813 39.097657c-7.140625-4.769532-15.710937-7.554688-24.925781-7.554688-24.8125 0-45 20.1875-45 45 0 6.9375 1.582031 13.515625 4.398438 19.390625l-60.007813 60.007813c-5.875-2.816407-12.453125-4.398438-19.390625-4.398438-12.109375 0-23.109375 4.816406-31.207031 12.625l-44.148438-22.074219c.226563-1.820312.355469-3.667969.355469-5.550781 0-24.8125-20.1875-45-45-45s-45 20.1875-45 45 20.1875 45 45 45zm360-210c8.269531 0 15 6.730469 15 15s-6.730469 15-15 15-15-6.730469-15-15 6.730469-15 15-15zm-120 90c8.269531 0 15 6.730469 15 15s-6.730469 15-15 15-15-6.730469-15-15 6.730469-15 15-15zm-120 120c8.269531 0 15 6.730469 15 15s-6.730469 15-15 15-15-6.730469-15-15 6.730469-15 15-15zm-120-60c8.269531 0 15 6.730469 15 15s-6.730469 15-15 15-15-6.730469-15-15 6.730469-15 15-15zm0 0" fill="#000000"/><path d="m497 482h-16v-317c0-8.285156-6.714844-15-15-15h-60c-8.285156 0-15 6.714844-15 15v317h-30v-227c0-8.285156-6.714844-15-15-15h-60c-8.285156 0-15 6.714844-15 15v227h-30v-107c0-8.285156-6.714844-15-15-15h-60c-8.285156 0-15 6.714844-15 15v107h-30v-167c0-8.285156-6.714844-15-15-15h-60c-8.285156 0-15 6.714844-15 15v167h-16c-8.285156 0-15 6.714844-15 15s6.714844 15 15 15h482c8.285156 0 15-6.714844 15-15s-6.714844-15-15-15zm-76-302h30v302h-30zm-120 90h30v212h-30zm-120 120h30v92h-30zm-120-60h30v152h-30zm0 0" fill="#000000"/></g><path d="m237.647 0c-131.037 0-237.647 106.61-237.647 237.647s106.61 237.647 237.647 237.647 237.647-106.61 237.647-237.647-106.611-237.647-237.647-237.647zm207.188 222.794h-192.335v-192.336c102.799 7.32 185.015 89.537 192.335 192.336zm-415.13 14.853c0-109.647 85.363-199.519 193.088-207.188v207.188c0 4.114 1.672 7.831 4.37 10.52l146.449 146.449c-36.498 31.657-83.972 50.972-135.966 50.972-114.661-.001-207.941-93.281-207.941-207.941zm364.909 135.966-121.113-121.113h171.333c-3.288 46.156-21.616 88.134-50.22 121.113z" transform="matrix(0.1262379139661789 0 0 0.1262379139661789 223 30.000001907348633)" id="L1_30" fill="#000000"/><g transform="matrix(0.1171875 0 0 0.1171875 6 3)" id="L1_31"><path d="m0 113.292969h113.292969v-113.292969h-113.292969zm30.003906-83.289063h53.289063v53.289063h-53.289063zm0 0" fill="#000000"/><path d="m149.296875 0v113.292969h362.703125v-113.292969zm332.699219 83.292969h-302.695313v-53.289063h302.695313zm0 0" fill="#000000"/><path d="m0 260.300781h113.292969v-113.292969h-113.292969zm30.003906-83.292969h53.289063v53.289063h-53.289063zm0 0" fill="#000000"/><path d="m149.296875 260.300781h362.703125v-113.292969h-362.703125zm30.003906-83.292969h302.695313v53.289063h-302.695313zm0 0" fill="#000000"/><path d="m0 407.308594h113.292969v-113.296875h-113.292969zm30.003906-83.292969h53.289063v53.289063h-53.289063zm0 0" fill="#000000"/><path d="m149.296875 407.308594h362.703125v-113.296875h-362.703125zm30.003906-83.292969h302.695313v53.289063h-302.695313zm0 0" fill="#000000"/></g></defs><g fi:class="KUsePattern" opacity="0.09"><pattern id="pattern_L1_17" width="350" height="350" patternUnits="userSpaceOnUse"><use xlink:href="#L1_17" x="-350" y="-350"/><use xlink:href="#L1_17" x="0" y="-350"/><use xlink:href="#L1_17" x="350" y="-350"/><use xlink:href="#L1_17" x="-350" y="0"/><use xlink:href="#L1_17" x="0" y="0"/><use xlink:href="#L1_17" x="350" y="0"/><use xlink:href="#L1_17" x="-350" y="350"/><use xlink:href="#L1_17" x="0" y="350"/><use xlink:href="#L1_17" x="350" y="350"/></pattern><rect x="0" y="0" width="100%" height="100%" fill="url(#pattern_L1_17)"/></g><g fi:class="KUsePattern" opacity="0.1"><pattern id="pattern_L1_19" width="350" height="350" patternUnits="userSpaceOnUse"><use xlink:href="#L1_19" x="-350" y="-350"/><use xlink:href="#L1_19" x="0" y="-350"/><use xlink:href="#L1_19" x="350" y="-350"/><use xlink:href="#L1_19" x="-350" y="0"/><use xlink:href="#L1_19" x="0" y="0"/><use xlink:href="#L1_19" x="350" y="0"/><use xlink:href="#L1_19" x="-350" y="350"/><use xlink:href="#L1_19" x="0" y="350"/><use xlink:href="#L1_19" x="350" y="350"/></pattern><rect x="0" y="0" width="100%" height="100%" fill="url(#pattern_L1_19)"/></g><g fi:class="KUsePattern" opacity="0.1"><pattern id="pattern_L1_20" width="350" height="350" patternUnits="userSpaceOnUse"><use xlink:href="#L1_20" x="-350" y="-350"/><use xlink:href="#L1_20" x="0" y="-350"/><use xlink:href="#L1_20" x="350" y="-350"/><use xlink:href="#L1_20" x="-350" y="0"/><use xlink:href="#L1_20" x="0" y="0"/><use xlink:href="#L1_20" x="350" y="0"/><use xlink:href="#L1_20" x="-350" y="350"/><use xlink:href="#L1_20" x="0" y="350"/><use xlink:href="#L1_20" x="350" y="350"/></pattern><rect x="0" y="0" width="100%" height="100%" fill="url(#pattern_L1_20)"/></g><g fi:class="KUsePattern" opacity="0.1"><pattern id="pattern_L1_22" width="350" height="350" patternUnits="userSpaceOnUse"><use xlink:href="#L1_22" x="-350" y="-350"/><use xlink:href="#L1_22" x="0" y="-350"/><use xlink:href="#L1_22" x="350" y="-350"/><use xlink:href="#L1_22" x="-350" y="0"/><use xlink:href="#L1_22" x="0" y="0"/><use xlink:href="#L1_22" x="350" y="0"/><use xlink:href="#L1_22" x="-350" y="350"/><use xlink:href="#L1_22" x="0" y="350"/><use xlink:href="#L1_22" x="350" y="350"/></pattern><rect x="0" y="0" width="100%" height="100%" fill="url(#pattern_L1_22)"/></g><g fi:class="KUsePattern" opacity="0.1"><pattern id="pattern_L1_18" width="350" height="350" patternUnits="userSpaceOnUse"><use xlink:href="#L1_18" x="-350" y="-350"/><use xlink:href="#L1_18" x="0" y="-350"/><use xlink:href="#L1_18" x="350" y="-350"/><use xlink:href="#L1_18" x="-350" y="0"/><use xlink:href="#L1_18" x="0" y="0"/><use xlink:href="#L1_18" x="350" y="0"/><use xlink:href="#L1_18" x="-350" y="350"/><use xlink:href="#L1_18" x="0" y="350"/><use xlink:href="#L1_18" x="350" y="350"/></pattern><rect x="0" y="0" width="100%" height="100%" fill="url(#pattern_L1_18)"/></g><g fi:class="KUsePattern" opacity="0.09"><pattern id="pattern_L1_29" width="350" height="350" patternUnits="userSpaceOnUse"><use xlink:href="#L1_29" x="-350" y="-350"/><use xlink:href="#L1_29" x="0" y="-350"/><use xlink:href="#L1_29" x="350" y="-350"/><use xlink:href="#L1_29" x="-350" y="0"/><use xlink:href="#L1_29" x="0" y="0"/><use xlink:href="#L1_29" x="350" y="0"/><use xlink:href="#L1_29" x="-350" y="350"/><use xlink:href="#L1_29" x="0" y="350"/><use xlink:href="#L1_29" x="350" y="350"/></pattern><rect x="0" y="0" width="100%" height="100%" fill="url(#pattern_L1_29)"/></g><g fi:class="KUsePattern" opacity="0.1"><pattern id="pattern_L1_30" width="350" height="350" patternUnits="userSpaceOnUse"><use xlink:href="#L1_30" x="-350" y="-350"/><use xlink:href="#L1_30" x="0" y="-350"/><use xlink:href="#L1_30" x="350" y="-350"/><use xlink:href="#L1_30" x="-350" y="0"/><use xlink:href="#L1_30" x="0" y="0"/><use xlink:href="#L1_30" x="350" y="0"/><use xlink:href="#L1_30" x="-350" y="350"/><use xlink:href="#L1_30" x="0" y="350"/><use xlink:href="#L1_30" x="350" y="350"/></pattern><rect x="0" y="0" width="100%" height="100%" fill="url(#pattern_L1_30)"/></g><g fi:class="KUsePattern" opacity="0.1"><pattern id="pattern_L1_31" width="350" height="350" patternUnits="userSpaceOnUse"><use xlink:href="#L1_31" x="-350" y="-350"/><use xlink:href="#L1_31" x="0" y="-350"/><use xlink:href="#L1_31" x="350" y="-350"/><use xlink:href="#L1_31" x="-350" y="0"/><use xlink:href="#L1_31" x="0" y="0"/><use xlink:href="#L1_31" x="350" y="0"/><use xlink:href="#L1_31" x="-350" y="350"/><use xlink:href="#L1_31" x="0" y="350"/><use xlink:href="#L1_31" x="350" y="350"/></pattern><rect x="0" y="0" width="100%" height="100%" fill="url(#pattern_L1_31)"/></g></svg>