<svg version="1" xmlns="http://www.w3.org/2000/svg" width="682.667" height="682.667" viewBox="0 0 512.000000 512.000000"><path d="M201.3 1.9c-6.8 4.2-7.6 8.1-5 22.6 1 4.9 1.9 10.3 2.2 12 2.8 15.6 5.1 28.1 6.1 33.5.2.8 1.3 7.3 2.5 14.5 2.3 13.3 4.3 18.1 8.9 20.5 6 3.2 14.6.4 17.5-5.7 2.1-4.4 1.8-7.6-2.4-30.8-1.8-9.4-3.6-19.5-4.1-22.5-.6-3-1.2-6.6-1.5-8-.8-4-1.4-7.2-2-11.5-.4-2.2-.8-4.7-1-5.5-.2-.8-.7-3.5-1-6-1.3-9.4-5.4-14-13-14.7-2.8-.3-5 .2-7.2 1.6zM112.2 11.5c-3.9 3.3-6 7.8-5.4 11.8.3 2.1 19.7 37.6 27.2 49.7.5.8 6.8 11.6 13.9 24 16.1 27.8 14.8 25.9 19.5 28 9.1 4.2 18.8-2.7 18-12.8-.3-3.3-2.8-8.2-13.8-27-2.1-3.5-3.4-6.8-3-7.5.4-.6.4-.9-.1-.5-.9.9-2-.5-6.5-8.6-1.7-3.2-4.5-8.1-6.1-10.8-1.6-2.7-2.9-5.3-2.9-5.8 0-.6-.4-1-1-1-.5 0-1-.4-1-.9s-1.9-4.2-4.3-8.3c-2.4-4-5.5-9.4-6.9-11.9-4.8-8.6-5.3-9.4-5.9-9.9-.4-.3-.9-1.4-1.3-2.6-.3-1.1-2-3.3-3.6-4.9-2.3-2.2-4.2-2.9-8.3-3.3-4.7-.4-5.7-.1-8.5 2.3zM61 83.1c-4 2.9-5.2 5.1-5.5 10.7-.3 3.5 3.1 9.5 6.8 12.1 1.6 1.2 14.1 11.7 26.7 22.4 1.4 1.2 5 4.2 8 6.7s6.4 5.4 7.6 6.5c1.2 1.1 3.2 2.9 4.5 4 1.4 1.1 4.9 4.1 7.9 6.6 6.8 5.7 9.1 6.9 13.2 7.1 6.9.2 12.8-5.2 13.3-12.1.3-5.1-1.9-8.9-8.2-14.1-3-2.5-6.2-5.2-7.2-6-.9-.8-4.6-4-8.1-7-3.6-3-6.7-5.7-7-6-.3-.3-4.8-4.1-10-8.4-5.2-4.3-10.6-8.8-12-10-1.4-1.1-5.2-4.4-8.5-7.2-10.3-8.8-15-10-21.5-5.3zM313.2 117c-2.9 1.7-11.7 6.8-19.5 11.3-7.8 4.6-16.2 9.5-18.7 10.9-9.8 5.6-12 6.9-26 15-8 4.7-16.5 9.6-19 11-2.5 1.4-15.5 9-29 16.8-13.5 7.9-26.1 15.2-28 16.2-1.9 1-5.1 2.8-7 3.9-5.1 3.1-27.9 16.3-32 18.7-5.2 2.9-10.3 5.9-22.5 13-6 3.6-13 7.6-15.5 9-2.5 1.4-5.4 3-6.4 3.6-4 2.2-18.2 12.5-19.5 14-.7.9-1.7 1.3-2.2 1-.5-.3-.8-.2-.7.3.4 1.1-5.8 7.3-7.3 7.3-.7 0-.9.3-.6.6.3.4-1.3 3-3.7 5.8-28.5 33.6-36.2 83.7-19.4 126.1 8 20.1 22.3 39.2 38.8 51.8 6.9 5.2 20.9 13 29.7 16.5 9.7 3.8 18.5 6.4 47.8 14.2 12.7 3.4 30.4 8.2 39.5 10.7 9.1 2.5 17.4 4.7 18.5 4.9 1.1.2 7.6 2 14.5 3.9 25.4 7.2 29.2 7.8 47 7.9 12.5 0 18.4-.4 24.5-1.8 9.1-2 9.4-2.1 11.5-2.9.8-.3 4-1.3 7-2.3 8-2.6 21.4-9.8 30-16 26.1-18.8 42.9-45 49.7-77.4 1.8-8.9 2.5-32.9 1.1-42.3-1.7-11.7-6.2-25.4-12.9-39.2l-3.2-6.7 3-2.6c1.6-1.5 6.5-5.9 10.9-9.7 4.3-3.9 9-8.1 10.5-9.5 1.4-1.4 4.3-4 6.5-5.9 2.1-1.9 8-7.1 12.9-11.6 5-4.5 13.7-12.4 19.5-17.6 5.8-5.1 12.5-11.2 15-13.5 8.1-7.5 22.8-20.6 26-23.2 2-1.7 1.9-1.9-8.1-19.2-5.5-9.6-11.1-19.3-12.4-21.5-1.2-2.2-5.7-10.1-10-17.5s-9.3-16-11-19l-3.1-5.5-15.4-4.2c-8.5-2.4-21.3-5.8-28.5-7.7-39.3-10.4-66.6-17.8-70.9-19.1-6-1.9-5.1-2-11.4 1.5zm19.6 23.4c4.8 1.4 14.1 3.9 20.7 5.6 6.6 1.8 21 5.6 32 8.7 22.2 6 22.5 6.1 24.3 6.2.6.1 1.2.5 1.2 1 0 .6-34.4 21-48.5 28.7-1.8 1-4.6 2.6-11.6 6.6-1.3.7-2.9 1.9-3.7 2.5-.7.7-1.9 1.3-2.6 1.3-.6 0-1.7.5-2.4 1.2-1.2 1.2-6.5 4.3-18.2 10.8-5.9 3.2-6.5 3.6-29.5 17-19.1 11.1-70.6 40.9-76.5 44.2-6.5 3.6-12.3 7.1-13.5 8-.5.5-3.9 3-7.5 5.7-8.1 6-17.4 15.2-23.2 22.8-4.3 5.7-12.8 18.8-12.8 19.8 0 .2-1.3 3.3-2.9 6.8-3.5 7.5-7.5 21.1-8.7 28.7-.1.8-.5 3.7-.9 6.5-1.3 8.8-.8 27.2 1 36.5.3 1.4.7 3.6 1 4.9 2.8 14.8 13.4 37.4 23.8 50.4 3 3.9 3 3.9.6 3.2-3.8-1.3-11.5-3.4-23.9-6.6-40.2-10.4-55.2-17.3-71.2-32.8-14.3-13.7-24.5-32.6-28.9-53.6-3.7-17.7-1.1-43.2 6-59.8 3.2-7.3 10.1-18.8 11-18.2.5.2.8-.1.7-.9-.1-1.6 6.1-9.3 12.9-15.9 6.8-6.6 16.4-12.8 47.5-30.8 14.6-8.4 36.6-21.1 49-28.2 47.5-27.5 55-31.7 55.9-31.7.5 0 1.1-.4 1.3-.8.4-1 47.3-28.2 48.6-28.2.6 0 1.2-.4 1.4-.8.2-.4 5.3-3.7 11.3-7.1 6.1-3.5 13.9-8.1 17.5-10.2 3.6-2.1 7.3-3.8 8.3-3.8 1-.1 5.7 1 10.5 2.3z"/><path d="M233.5 206.3c-6.2 3.4-9.3 5.2-18.3 10.6-2.9 1.7-5.5 3.1-5.7 3.1-.7 0-13.1 8-12.5 8 .3.1 3.7 1 7.5 2.1 3.9 1 8.1 2.1 9.4 2.4 1.2.3 8.8 2.4 16.6 4.6l14.4 4 9.8-5.7c5.4-3.2 14.9-8.6 21.1-12.2 6.2-3.6 11.1-6.6 11-6.7-.4-.4-36.5-10.5-39.5-11.1-1.2-.2-3.4-.9-4.8-1.4-3.2-1.2-1.9-1.5-9 2.3z"/></svg>